<svg width="30" height="30" viewBox="0 0 30 30" fill="none" xmlns="http://www.w3.org/2000/svg">
<path fill-rule="evenodd" clip-rule="evenodd" d="M14 16.875H16V15H14V16.875ZM14 24.375H16V22.5H14V24.375ZM22 16.875H24V15H22V16.875ZM22 24.375H24V22.5H22V24.375ZM6 24.375H8V22.5H6V24.375ZM28 7.5H2V5.625C2 4.59 2.896 3.75 4 3.75H8V4.6875C8 5.20594 8.447 5.625 9 5.625C9.553 5.625 10 5.20594 10 4.6875V3.75H20V4.6875C20 5.20594 20.447 5.625 21 5.625C21.553 5.625 22 5.20594 22 4.6875V3.75H26C27.104 3.75 28 4.59 28 5.625V7.5ZM26 16.875C26 17.91 25.104 18.75 24 18.75H22C20.896 18.75 20 17.91 20 16.875V15C20 13.965 20.896 13.125 22 13.125H24C25.104 13.125 26 13.965 26 15V16.875ZM26 24.375C26 25.41 25.104 26.25 24 26.25H22C20.896 26.25 20 25.41 20 24.375V22.5C20 21.465 20.896 20.625 22 20.625H24C25.104 20.625 26 21.465 26 22.5V24.375ZM18 16.875C18 17.91 17.104 18.75 16 18.75H14C12.896 18.75 12 17.91 12 16.875V15C12 13.965 12.896 13.125 14 13.125H16C17.104 13.125 18 13.965 18 15V16.875ZM18 24.375C18 25.41 17.104 26.25 16 26.25H14C12.896 26.25 12 25.41 12 24.375V22.5C12 21.465 12.896 20.625 14 20.625H16C17.104 20.625 18 21.465 18 22.5V24.375ZM10 16.875C10 17.91 9.104 18.75 8 18.75H6C4.896 18.75 4 17.91 4 16.875V15C4 13.965 4.896 13.125 6 13.125H8C9.104 13.125 10 13.965 10 15V16.875ZM10 24.375C10 25.41 9.104 26.25 8 26.25H6C4.896 26.25 4 25.41 4 24.375V22.5C4 21.465 4.896 20.625 6 20.625H8C9.104 20.625 10 21.465 10 22.5V24.375ZM26 1.875H22V0.9375C22 0.42 21.553 0 21 0C20.447 0 20 0.42 20 0.9375V1.875H10V0.9375C10 0.42 9.553 0 9 0C8.447 0 8 0.42 8 0.9375V1.875H4C1.791 1.875 0 3.55406 0 5.625V26.25C0 28.3209 1.791 30 4 30H26C28.209 30 30 28.3209 30 26.25V5.625C30 3.55406 28.209 1.875 26 1.875ZM6 16.875H8V15H6V16.875Z" fill="black"/>
</svg>
