<svg width="41" height="39" viewBox="0 0 41 39" fill="none" xmlns="http://www.w3.org/2000/svg">
<path fill-rule="evenodd" clip-rule="evenodd" d="M18.4274 2.63725C17.1674 0.519438 14.4098 -0.268962 12.2359 1.01611L9.00154 2.86698C6.61596 4.23072 5.80709 7.2886 7.16988 9.64728L7.17085 9.64894C7.87386 10.8618 7.76352 11.6366 7.54409 12.0174C7.32452 12.3984 6.70977 12.8813 5.3125 12.8813C2.56229 12.8813 0.34375 15.1282 0.34375 17.85V21.15C0.34375 23.8719 2.56229 26.1187 5.3125 26.1187C6.70977 26.1187 7.32452 26.6016 7.54409 26.9825C7.76352 27.3634 7.87386 28.1381 7.17085 29.3511L7.16988 29.3527C5.80709 31.7115 6.61671 34.7698 9.00231 36.1335L12.2361 37.9839C14.41 39.2689 17.1674 38.4806 18.4274 36.3628L18.6421 35.9921C19.3452 34.7792 20.0744 34.4859 20.5163 34.4859C20.9564 34.4859 21.6799 34.7767 22.3737 35.9869L22.3767 35.9921L22.5829 36.3484L22.5914 36.3628C23.8514 38.4806 26.6088 39.2689 28.7826 37.9839L32.0172 36.1331C34.4044 34.7683 35.2083 31.7316 33.8522 29.3586L33.8479 29.3511C33.1448 28.1381 33.2552 27.3634 33.4746 26.9825C33.6942 26.6016 34.309 26.1187 35.7063 26.1187C38.4565 26.1187 40.675 23.8719 40.675 21.15V17.85C40.675 15.0998 38.428 12.8813 35.7063 12.8813C34.309 12.8813 33.6942 12.3984 33.4746 12.0174C33.2552 11.6366 33.1448 10.8618 33.8479 9.64894L33.8489 9.64728C35.2118 7.28836 34.4026 4.23006 32.0164 2.86654L28.7828 1.01611C26.6089 -0.268962 23.8514 0.519363 22.5914 2.63719L22.3767 3.00792C21.6736 4.22089 20.9444 4.51407 20.5022 4.51407C20.0624 4.51407 19.3388 4.22337 18.6451 3.01313L18.6421 3.00792L18.4358 2.65163L18.4274 2.63725ZM26.125 19.5C26.125 22.6067 23.6067 25.125 20.5 25.125C17.3933 25.125 14.875 22.6067 14.875 19.5C14.875 16.3933 17.3933 13.875 20.5 13.875C23.6067 13.875 26.125 16.3933 26.125 19.5Z" fill="white"/>
</svg>
