<svg xmlns="http://www.w3.org/2000/svg" xmlns:xlink="http://www.w3.org/1999/xlink" width="200" zoomAndPan="magnify" viewBox="0 0 150 157.92" height="200" preserveAspectRatio="xMidYMid meet" version="1.2"><defs><clipPath id="241aebb1fe"><path d="M 73 20 L 135.34375 20 L 135.34375 109 L 73 109 Z M 73 20 "/></clipPath><clipPath id="20af4e2e9e"><path d="M 14.65625 0 L 119 0 L 119 148 L 14.65625 148 Z M 14.65625 0 "/></clipPath></defs><g id="ed6d86f04b"><g clip-rule="nonzero" clip-path="url(#241aebb1fe)"><path style=" stroke:none;fill-rule:nonzero;fill:#7ed957;fill-opacity:1;" d="M 73.777344 77.339844 C 73.777344 63.335938 94.660156 32.238281 102.023438 21.703125 C 102.164062 21.5 102.328125 21.3125 102.515625 21.148438 C 102.703125 20.984375 102.90625 20.84375 103.128906 20.726562 C 103.351562 20.613281 103.582031 20.523438 103.824219 20.464844 C 104.066406 20.40625 104.3125 20.375 104.5625 20.375 C 104.8125 20.375 105.054688 20.40625 105.300781 20.464844 C 105.542969 20.523438 105.773438 20.613281 105.992188 20.726562 C 106.214844 20.84375 106.417969 20.984375 106.605469 21.148438 C 106.792969 21.3125 106.957031 21.5 107.101562 21.703125 C 114.46875 32.238281 135.34375 63.335938 135.34375 77.339844 C 135.34375 78.347656 135.292969 79.351562 135.195312 80.355469 C 135.09375 81.359375 134.949219 82.355469 134.75 83.34375 C 134.554688 84.332031 134.308594 85.308594 134.015625 86.273438 C 133.722656 87.234375 133.382812 88.183594 132.996094 89.113281 C 132.609375 90.046875 132.179688 90.957031 131.703125 91.84375 C 131.230469 92.734375 130.710938 93.597656 130.152344 94.433594 C 129.589844 95.273438 128.992188 96.082031 128.351562 96.859375 C 127.710938 97.636719 127.035156 98.382812 126.324219 99.097656 C 125.609375 99.808594 124.863281 100.484375 124.085938 101.125 C 123.304688 101.761719 122.496094 102.363281 121.660156 102.921875 C 120.820312 103.480469 119.957031 104 119.066406 104.472656 C 118.179688 104.949219 117.269531 105.378906 116.339844 105.765625 C 115.40625 106.152344 114.457031 106.488281 113.496094 106.78125 C 112.53125 107.074219 111.554688 107.320312 110.566406 107.515625 C 109.578125 107.710938 108.582031 107.859375 107.578125 107.957031 C 106.574219 108.058594 105.570312 108.105469 104.5625 108.105469 C 103.554688 108.105469 102.546875 108.058594 101.546875 107.957031 C 100.542969 107.859375 99.546875 107.710938 98.558594 107.515625 C 97.570312 107.320312 96.59375 107.074219 95.628906 106.78125 C 94.664062 106.488281 93.714844 106.152344 92.785156 105.765625 C 91.851562 105.378906 90.941406 104.949219 90.054688 104.472656 C 89.164062 104 88.300781 103.480469 87.464844 102.921875 C 86.625 102.363281 85.816406 101.761719 85.039062 101.125 C 84.257812 100.484375 83.511719 99.808594 82.800781 99.097656 C 82.085938 98.382812 81.410156 97.636719 80.769531 96.859375 C 80.132812 96.082031 79.53125 95.273438 78.972656 94.433594 C 78.410156 93.597656 77.894531 92.734375 77.417969 91.84375 C 76.941406 90.957031 76.511719 90.046875 76.125 89.113281 C 75.738281 88.183594 75.398438 87.234375 75.105469 86.273438 C 74.8125 85.308594 74.570312 84.332031 74.371094 83.34375 C 74.175781 82.355469 74.027344 81.359375 73.929688 80.355469 C 73.828125 79.351562 73.777344 78.347656 73.777344 77.339844 Z M 73.777344 77.339844 "/></g><g clip-rule="nonzero" clip-path="url(#20af4e2e9e)"><path style=" stroke:none;fill-rule:nonzero;fill:#00bf63;fill-opacity:1;" d="M 14.75 95.652344 C 14.75 72.167969 49.792969 19.972656 62.160156 2.292969 C 62.398438 1.949219 62.675781 1.636719 62.988281 1.363281 C 63.300781 1.085938 63.644531 0.851562 64.015625 0.65625 C 64.386719 0.460938 64.773438 0.316406 65.179688 0.214844 C 65.585938 0.117188 65.996094 0.0664062 66.414062 0.0664062 C 66.832031 0.0664062 67.246094 0.117188 67.652344 0.214844 C 68.058594 0.316406 68.445312 0.460938 68.816406 0.65625 C 69.1875 0.851562 69.53125 1.085938 69.84375 1.363281 C 70.15625 1.636719 70.433594 1.949219 70.671875 2.292969 C 83.046875 19.972656 118.082031 72.152344 118.082031 95.652344 C 118.082031 97.34375 117.996094 99.035156 117.832031 100.71875 C 117.664062 102.402344 117.417969 104.074219 117.085938 105.734375 C 116.757812 107.390625 116.347656 109.03125 115.855469 110.652344 C 115.363281 112.269531 114.796875 113.863281 114.148438 115.425781 C 113.5 116.988281 112.777344 118.515625 111.980469 120.007812 C 111.183594 121.5 110.3125 122.949219 109.375 124.355469 C 108.433594 125.765625 107.425781 127.121094 106.351562 128.429688 C 105.28125 129.738281 104.144531 130.988281 102.949219 132.1875 C 101.75 133.382812 100.5 134.515625 99.191406 135.589844 C 97.882812 136.664062 96.527344 137.671875 95.117188 138.609375 C 93.710938 139.550781 92.261719 140.421875 90.769531 141.21875 C 89.277344 142.015625 87.75 142.738281 86.1875 143.386719 C 84.625 144.03125 83.03125 144.601562 81.414062 145.09375 C 79.792969 145.585938 78.15625 145.996094 76.496094 146.324219 C 74.835938 146.65625 73.164062 146.902344 71.480469 147.070312 C 69.796875 147.234375 68.109375 147.316406 66.414062 147.316406 C 64.722656 147.316406 63.035156 147.234375 61.351562 147.070312 C 59.667969 146.902344 57.996094 146.65625 56.335938 146.324219 C 54.675781 145.996094 53.039062 145.585938 51.417969 145.09375 C 49.800781 144.601562 48.207031 144.03125 46.644531 143.386719 C 45.082031 142.738281 43.554688 142.015625 42.0625 141.21875 C 40.570312 140.421875 39.117188 139.550781 37.710938 138.609375 C 36.304688 137.671875 34.949219 136.664062 33.640625 135.589844 C 32.332031 134.515625 31.078125 133.382812 29.882812 132.1875 C 28.6875 130.988281 27.550781 129.738281 26.476562 128.429688 C 25.40625 127.121094 24.398438 125.765625 23.457031 124.355469 C 22.519531 122.949219 21.648438 121.5 20.851562 120.007812 C 20.054688 118.515625 19.332031 116.988281 18.683594 115.425781 C 18.035156 113.863281 17.464844 112.269531 16.976562 110.652344 C 16.484375 109.03125 16.074219 107.390625 15.742188 105.734375 C 15.414062 104.074219 15.164062 102.402344 15 100.71875 C 14.832031 99.035156 14.75 97.34375 14.75 95.652344 Z M 14.75 95.652344 "/></g><path style=" stroke:none;fill-rule:nonzero;fill:#7ed957;fill-opacity:1;" d="M 107.925781 95.652344 C 107.925781 97.011719 107.859375 98.371094 107.726562 99.722656 C 107.59375 101.078125 107.394531 102.417969 107.128906 103.753906 C 106.863281 105.085938 106.535156 106.40625 106.140625 107.707031 C 105.746094 109.007812 105.289062 110.285156 104.769531 111.542969 C 104.25 112.800781 103.667969 114.027344 103.027344 115.226562 C 102.386719 116.425781 101.691406 117.589844 100.933594 118.722656 C 100.179688 119.851562 99.371094 120.945312 98.507812 121.996094 C 97.644531 123.046875 96.734375 124.050781 95.773438 125.015625 C 94.8125 125.976562 93.804688 126.886719 92.753906 127.75 C 91.703125 128.613281 90.613281 129.421875 89.480469 130.179688 C 88.351562 130.933594 87.1875 131.632812 85.988281 132.273438 C 84.789062 132.914062 83.558594 133.496094 82.304688 134.015625 C 81.046875 134.535156 79.769531 134.996094 78.46875 135.390625 C 77.167969 135.785156 75.847656 136.113281 74.515625 136.378906 C 73.183594 136.644531 71.839844 136.84375 70.484375 136.976562 C 69.132812 137.109375 67.777344 137.175781 66.414062 137.175781 C 65.054688 137.175781 63.699219 137.109375 62.347656 136.976562 C 60.992188 136.84375 59.648438 136.644531 58.316406 136.378906 C 56.980469 136.113281 55.664062 135.785156 54.363281 135.390625 C 53.0625 134.996094 51.785156 134.535156 50.527344 134.015625 C 49.269531 133.496094 48.042969 132.914062 46.84375 132.273438 C 45.644531 131.632812 44.480469 130.933594 43.351562 130.179688 C 42.21875 129.421875 41.128906 128.613281 40.078125 127.75 C 39.027344 126.886719 38.019531 125.976562 37.058594 125.015625 C 36.097656 124.050781 35.1875 123.046875 34.324219 121.996094 C 33.460938 120.945312 32.652344 119.851562 31.898438 118.722656 C 31.140625 117.589844 30.445312 116.425781 29.804688 115.226562 C 29.160156 114.027344 28.582031 112.800781 28.0625 111.542969 C 27.542969 110.285156 27.085938 109.007812 26.691406 107.707031 C 26.296875 106.40625 25.964844 105.085938 25.699219 103.753906 C 25.4375 102.417969 25.238281 101.078125 25.105469 99.722656 C 24.972656 98.371094 24.90625 97.011719 24.90625 95.652344 C 24.90625 91.4375 26.605469 85.269531 29.78125 77.5625 C 31.425781 78.171875 33.128906 78.449219 34.882812 78.402344 C 42.753906 78.402344 42.753906 74.035156 50.625 74.035156 C 58.496094 74.035156 58.519531 78.402344 66.390625 78.402344 C 74.261719 78.402344 74.261719 74.035156 82.15625 74.035156 C 90.050781 74.035156 90.027344 78.402344 97.898438 78.402344 C 99.660156 78.441406 101.371094 78.152344 103.023438 77.539062 C 106.222656 85.269531 107.925781 91.4375 107.925781 95.652344 Z M 107.925781 95.652344 "/><path style=" stroke:none;fill-rule:nonzero;fill:#3a421b;fill-opacity:1;" d="M 87.292969 51.863281 C 87.460938 52.15625 87.675781 52.40625 87.941406 52.613281 C 88.210938 52.820312 88.503906 52.96875 88.828125 53.058594 C 89.152344 53.148438 89.484375 53.171875 89.816406 53.128906 C 90.152344 53.085938 90.464844 52.980469 90.757812 52.816406 C 91.050781 52.648438 91.300781 52.433594 91.507812 52.167969 C 91.714844 51.902344 91.863281 51.605469 91.949219 51.28125 C 92.039062 50.957031 92.0625 50.625 92.019531 50.292969 C 91.980469 49.957031 91.875 49.644531 91.707031 49.351562 C 88.679688 44.035156 85.316406 38.433594 81.722656 32.695312 C 81.542969 32.410156 81.316406 32.171875 81.042969 31.976562 C 80.765625 31.78125 80.464844 31.644531 80.136719 31.570312 C 79.808594 31.496094 79.480469 31.484375 79.148438 31.542969 C 78.816406 31.597656 78.507812 31.714844 78.222656 31.894531 C 77.9375 32.074219 77.695312 32.300781 77.5 32.574219 C 77.304688 32.847656 77.171875 33.148438 77.09375 33.476562 C 77.019531 33.804688 77.011719 34.136719 77.066406 34.46875 C 77.121094 34.800781 77.238281 35.109375 77.417969 35.394531 C 80.980469 41.070312 84.300781 46.613281 87.292969 51.863281 Z M 87.292969 51.863281 "/><path style=" stroke:none;fill-rule:nonzero;fill:#3a421b;fill-opacity:1;" d="M 52.898438 121.261719 L 83.367188 93.335938 C 83.613281 93.109375 83.808594 92.84375 83.953125 92.539062 C 84.09375 92.230469 84.171875 91.910156 84.1875 91.574219 C 84.203125 91.238281 84.152344 90.910156 84.039062 90.59375 C 83.921875 90.277344 83.75 89.996094 83.523438 89.746094 C 83.292969 89.496094 83.027344 89.300781 82.722656 89.160156 C 82.417969 89.015625 82.097656 88.9375 81.757812 88.925781 C 81.421875 88.910156 81.09375 88.960938 80.777344 89.078125 C 80.460938 89.191406 80.179688 89.363281 79.933594 89.59375 L 49.464844 117.519531 C 49.21875 117.746094 49.023438 118.011719 48.882812 118.320312 C 48.738281 118.625 48.660156 118.945312 48.648438 119.28125 C 48.632812 119.617188 48.683594 119.945312 48.796875 120.261719 C 48.914062 120.574219 49.085938 120.859375 49.3125 121.105469 C 49.539062 121.355469 49.804688 121.550781 50.109375 121.691406 C 50.417969 121.835938 50.738281 121.914062 51.074219 121.925781 C 51.410156 121.941406 51.734375 121.890625 52.050781 121.777344 C 52.367188 121.660156 52.652344 121.492188 52.898438 121.261719 Z M 52.898438 121.261719 "/><path style=" stroke:none;fill-rule:nonzero;fill:#3a421b;fill-opacity:1;" d="M 48.644531 96.542969 C 48.644531 97.042969 48.691406 97.539062 48.789062 98.027344 C 48.886719 98.519531 49.03125 98.996094 49.222656 99.457031 C 49.414062 99.917969 49.648438 100.359375 49.925781 100.773438 C 50.207031 101.1875 50.519531 101.574219 50.875 101.925781 C 51.226562 102.28125 51.613281 102.597656 52.027344 102.875 C 52.445312 103.152344 52.882812 103.386719 53.34375 103.578125 C 53.808594 103.769531 54.285156 103.914062 54.773438 104.011719 C 55.265625 104.109375 55.761719 104.160156 56.261719 104.160156 C 56.761719 104.160156 57.253906 104.109375 57.746094 104.011719 C 58.238281 103.914062 58.714844 103.769531 59.175781 103.578125 C 59.636719 103.386719 60.074219 103.152344 60.492188 102.875 C 60.90625 102.597656 61.292969 102.28125 61.644531 101.925781 C 62 101.574219 62.316406 101.1875 62.59375 100.773438 C 62.871094 100.359375 63.105469 99.917969 63.296875 99.457031 C 63.488281 98.996094 63.632812 98.519531 63.730469 98.027344 C 63.828125 97.539062 63.875 97.042969 63.875 96.542969 C 63.875 96.042969 63.828125 95.546875 63.730469 95.054688 C 63.632812 94.566406 63.488281 94.089844 63.296875 93.628906 C 63.105469 93.164062 62.871094 92.726562 62.59375 92.308594 C 62.316406 91.894531 62 91.511719 61.644531 91.15625 C 61.292969 90.800781 60.90625 90.488281 60.492188 90.210938 C 60.074219 89.929688 59.636719 89.695312 59.175781 89.503906 C 58.714844 89.3125 58.238281 89.167969 57.746094 89.070312 C 57.253906 88.972656 56.761719 88.925781 56.261719 88.925781 C 55.761719 88.925781 55.265625 88.972656 54.773438 89.070312 C 54.285156 89.167969 53.808594 89.3125 53.34375 89.503906 C 52.882812 89.695312 52.445312 89.929688 52.027344 90.210938 C 51.613281 90.488281 51.226562 90.800781 50.875 91.15625 C 50.519531 91.511719 50.207031 91.894531 49.925781 92.308594 C 49.648438 92.726562 49.414062 93.164062 49.222656 93.628906 C 49.03125 94.089844 48.886719 94.566406 48.789062 95.054688 C 48.691406 95.546875 48.644531 96.042969 48.644531 96.542969 Z M 56.261719 94.003906 C 56.597656 94.003906 56.921875 94.066406 57.230469 94.195312 C 57.542969 94.324219 57.816406 94.507812 58.054688 94.746094 C 58.292969 94.984375 58.476562 95.257812 58.605469 95.570312 C 58.734375 95.882812 58.800781 96.207031 58.800781 96.542969 C 58.800781 96.878906 58.734375 97.203125 58.605469 97.511719 C 58.476562 97.824219 58.292969 98.097656 58.054688 98.335938 C 57.816406 98.574219 57.542969 98.757812 57.230469 98.886719 C 56.921875 99.015625 56.597656 99.082031 56.261719 99.082031 C 55.921875 99.082031 55.601562 99.015625 55.289062 98.886719 C 54.976562 98.757812 54.703125 98.574219 54.464844 98.335938 C 54.226562 98.097656 54.042969 97.824219 53.914062 97.511719 C 53.785156 97.203125 53.722656 96.878906 53.722656 96.542969 C 53.722656 96.207031 53.785156 95.882812 53.914062 95.570312 C 54.042969 95.257812 54.226562 94.984375 54.464844 94.746094 C 54.703125 94.507812 54.976562 94.324219 55.289062 94.195312 C 55.601562 94.066406 55.921875 94.003906 56.261719 94.003906 Z M 56.261719 94.003906 "/><path style=" stroke:none;fill-rule:nonzero;fill:#3a421b;fill-opacity:1;" d="M 84.1875 114.3125 C 84.1875 113.8125 84.136719 113.316406 84.039062 112.828125 C 83.945312 112.335938 83.800781 111.859375 83.609375 111.398438 C 83.417969 110.9375 83.179688 110.496094 82.902344 110.082031 C 82.625 109.667969 82.308594 109.28125 81.957031 108.929688 C 81.601562 108.574219 81.21875 108.257812 80.800781 107.980469 C 80.386719 107.703125 79.949219 107.46875 79.484375 107.277344 C 79.023438 107.085938 78.546875 106.941406 78.058594 106.84375 C 77.566406 106.746094 77.070312 106.695312 76.570312 106.695312 C 76.070312 106.695312 75.574219 106.746094 75.085938 106.84375 C 74.59375 106.941406 74.117188 107.085938 73.65625 107.277344 C 73.195312 107.46875 72.753906 107.703125 72.339844 107.980469 C 71.921875 108.257812 71.539062 108.574219 71.183594 108.929688 C 70.832031 109.28125 70.515625 109.667969 70.238281 110.082031 C 69.960938 110.496094 69.726562 110.9375 69.535156 111.398438 C 69.34375 111.859375 69.199219 112.335938 69.101562 112.828125 C 69.003906 113.316406 68.953125 113.8125 68.953125 114.3125 C 68.953125 114.8125 69.003906 115.308594 69.101562 115.800781 C 69.199219 116.289062 69.34375 116.765625 69.535156 117.226562 C 69.726562 117.691406 69.960938 118.128906 70.238281 118.546875 C 70.515625 118.960938 70.832031 119.34375 71.183594 119.699219 C 71.539062 120.054688 71.921875 120.367188 72.339844 120.644531 C 72.753906 120.925781 73.195312 121.160156 73.65625 121.351562 C 74.117188 121.542969 74.59375 121.6875 75.085938 121.785156 C 75.574219 121.882812 76.070312 121.929688 76.570312 121.929688 C 77.070312 121.929688 77.566406 121.882812 78.058594 121.785156 C 78.546875 121.6875 79.023438 121.542969 79.484375 121.351562 C 79.949219 121.160156 80.386719 120.925781 80.800781 120.644531 C 81.21875 120.367188 81.601562 120.054688 81.957031 119.699219 C 82.308594 119.34375 82.625 118.960938 82.902344 118.546875 C 83.179688 118.128906 83.417969 117.691406 83.609375 117.226562 C 83.800781 116.765625 83.945312 116.289062 84.039062 115.800781 C 84.136719 115.308594 84.1875 114.8125 84.1875 114.3125 Z M 76.570312 116.851562 C 76.234375 116.851562 75.910156 116.789062 75.597656 116.660156 C 75.289062 116.53125 75.015625 116.347656 74.777344 116.109375 C 74.539062 115.871094 74.355469 115.597656 74.226562 115.285156 C 74.097656 114.972656 74.03125 114.648438 74.03125 114.3125 C 74.03125 113.976562 74.097656 113.652344 74.226562 113.34375 C 74.355469 113.03125 74.539062 112.757812 74.777344 112.519531 C 75.015625 112.28125 75.289062 112.097656 75.597656 111.96875 C 75.910156 111.839844 76.234375 111.773438 76.570312 111.773438 C 76.90625 111.773438 77.230469 111.839844 77.542969 111.96875 C 77.851562 112.097656 78.128906 112.28125 78.367188 112.519531 C 78.605469 112.757812 78.789062 113.03125 78.917969 113.34375 C 79.046875 113.652344 79.109375 113.976562 79.109375 114.3125 C 79.109375 114.648438 79.046875 114.972656 78.917969 115.285156 C 78.789062 115.597656 78.605469 115.871094 78.367188 116.109375 C 78.128906 116.347656 77.851562 116.53125 77.542969 116.660156 C 77.230469 116.789062 76.90625 116.851562 76.570312 116.851562 Z M 76.570312 116.851562 "/><path style=" stroke:none;fill-rule:nonzero;fill:#3a421b;fill-opacity:1;" d="M 96.882812 58.460938 C 96.882812 58.796875 96.816406 59.121094 96.6875 59.429688 C 96.558594 59.742188 96.375 60.015625 96.136719 60.253906 C 95.898438 60.492188 95.625 60.675781 95.3125 60.804688 C 95.003906 60.933594 94.679688 61 94.34375 61 C 94.007812 61 93.683594 60.933594 93.371094 60.804688 C 93.058594 60.675781 92.785156 60.492188 92.546875 60.253906 C 92.308594 60.015625 92.125 59.742188 91.996094 59.429688 C 91.867188 59.121094 91.804688 58.796875 91.804688 58.460938 C 91.804688 58.125 91.867188 57.800781 91.996094 57.488281 C 92.125 57.175781 92.308594 56.902344 92.546875 56.664062 C 92.785156 56.425781 93.058594 56.242188 93.371094 56.113281 C 93.683594 55.984375 94.007812 55.921875 94.34375 55.921875 C 94.679688 55.921875 95.003906 55.984375 95.3125 56.113281 C 95.625 56.242188 95.898438 56.425781 96.136719 56.664062 C 96.375 56.902344 96.558594 57.175781 96.6875 57.488281 C 96.816406 57.800781 96.882812 58.125 96.882812 58.460938 Z M 96.882812 58.460938 "/></g></svg>