<svg xmlns="http://www.w3.org/2000/svg" xmlns:xlink="http://www.w3.org/1999/xlink" width="200" zoomAndPan="magnify" viewBox="0 0 150 157.92" height="200" preserveAspectRatio="xMidYMid meet" version="1.2"><defs><clipPath id="45be954974"><path d="M 73 20 L 134.96875 20 L 134.96875 108 L 73 108 Z M 73 20 "/></clipPath><clipPath id="9ab9a884bf"><path d="M 15.03125 0.464844 L 118 0.464844 L 118 147 L 15.03125 147 Z M 15.03125 0.464844 "/></clipPath></defs><g id="27404c2602"><g clip-rule="nonzero" clip-path="url(#45be954974)"><path style=" stroke:none;fill-rule:nonzero;fill:#fad02c;fill-opacity:1;" d="M 73.785156 77.320312 C 73.785156 63.402344 94.539062 32.503906 101.855469 22.03125 C 101.996094 21.828125 102.160156 21.644531 102.34375 21.480469 C 102.53125 21.316406 102.734375 21.175781 102.953125 21.0625 C 103.171875 20.945312 103.402344 20.859375 103.644531 20.800781 C 103.886719 20.742188 104.128906 20.710938 104.378906 20.710938 C 104.625 20.710938 104.871094 20.742188 105.109375 20.800781 C 105.351562 20.859375 105.582031 20.945312 105.800781 21.0625 C 106.019531 21.175781 106.222656 21.316406 106.410156 21.480469 C 106.59375 21.644531 106.757812 21.828125 106.902344 22.03125 C 114.222656 32.503906 134.96875 63.402344 134.96875 77.320312 C 134.96875 78.324219 134.917969 79.320312 134.820312 80.320312 C 134.722656 81.316406 134.574219 82.304688 134.378906 83.289062 C 134.183594 84.269531 133.941406 85.238281 133.648438 86.199219 C 133.359375 87.15625 133.019531 88.097656 132.636719 89.023438 C 132.253906 89.949219 131.824219 90.851562 131.351562 91.738281 C 130.878906 92.621094 130.367188 93.476562 129.808594 94.308594 C 129.253906 95.144531 128.65625 95.945312 128.019531 96.71875 C 127.382812 97.496094 126.710938 98.234375 126.003906 98.945312 C 125.296875 99.652344 124.554688 100.324219 123.78125 100.957031 C 123.003906 101.59375 122.203125 102.1875 121.367188 102.746094 C 120.535156 103.300781 119.679688 103.816406 118.792969 104.289062 C 117.910156 104.761719 117.007812 105.1875 116.082031 105.570312 C 115.15625 105.953125 114.214844 106.292969 113.253906 106.582031 C 112.296875 106.871094 111.328125 107.117188 110.34375 107.3125 C 109.363281 107.507812 108.371094 107.652344 107.375 107.75 C 106.378906 107.847656 105.378906 107.898438 104.378906 107.898438 C 103.375 107.898438 102.375 107.847656 101.378906 107.75 C 100.382812 107.652344 99.394531 107.507812 98.410156 107.3125 C 97.429688 107.117188 96.457031 106.871094 95.5 106.582031 C 94.542969 106.292969 93.597656 105.953125 92.675781 105.570312 C 91.75 105.1875 90.84375 104.761719 89.960938 104.289062 C 89.078125 103.816406 88.21875 103.300781 87.386719 102.746094 C 86.554688 102.1875 85.75 101.59375 84.976562 100.957031 C 84.199219 100.324219 83.460938 99.652344 82.75 98.945312 C 82.042969 98.234375 81.371094 97.496094 80.734375 96.71875 C 80.097656 95.945312 79.503906 95.144531 78.945312 94.308594 C 78.390625 93.476562 77.875 92.621094 77.402344 91.738281 C 76.929688 90.851562 76.503906 89.949219 76.117188 89.023438 C 75.734375 88.097656 75.398438 87.15625 75.105469 86.199219 C 74.816406 85.238281 74.570312 84.269531 74.375 83.289062 C 74.179688 82.304688 74.03125 81.316406 73.933594 80.320312 C 73.835938 79.320312 73.785156 78.324219 73.785156 77.320312 Z M 73.785156 77.320312 "/></g><g clip-rule="nonzero" clip-path="url(#9ab9a884bf)"><path style=" stroke:none;fill-rule:nonzero;fill:#b88917;fill-opacity:1;" d="M 15.125 95.523438 C 15.125 72.183594 49.949219 20.308594 62.238281 2.738281 C 62.476562 2.398438 62.75 2.089844 63.0625 1.816406 C 63.375 1.542969 63.714844 1.308594 64.082031 1.113281 C 64.449219 0.921875 64.835938 0.777344 65.242188 0.675781 C 65.644531 0.578125 66.054688 0.527344 66.46875 0.527344 C 66.882812 0.527344 67.292969 0.578125 67.699219 0.675781 C 68.101562 0.777344 68.488281 0.921875 68.855469 1.113281 C 69.222656 1.308594 69.5625 1.542969 69.875 1.816406 C 70.1875 2.089844 70.460938 2.398438 70.699219 2.738281 C 83 20.308594 117.8125 72.167969 117.8125 95.523438 C 117.8125 97.203125 117.730469 98.882812 117.566406 100.554688 C 117.402344 102.226562 117.15625 103.890625 116.828125 105.539062 C 116.5 107.1875 116.089844 108.816406 115.601562 110.425781 C 115.113281 112.035156 114.546875 113.617188 113.90625 115.171875 C 113.261719 116.722656 112.542969 118.242188 111.75 119.726562 C 110.957031 121.207031 110.09375 122.648438 109.160156 124.046875 C 108.226562 125.445312 107.226562 126.792969 106.160156 128.09375 C 105.089844 129.394531 103.964844 130.636719 102.773438 131.828125 C 101.585938 133.015625 100.339844 134.144531 99.042969 135.210938 C 97.742188 136.277344 96.390625 137.277344 94.992188 138.210938 C 93.597656 139.148438 92.15625 140.011719 90.671875 140.804688 C 89.1875 141.597656 87.671875 142.3125 86.117188 142.957031 C 84.5625 143.601562 82.984375 144.167969 81.375 144.65625 C 79.765625 145.144531 78.136719 145.550781 76.484375 145.878906 C 74.835938 146.207031 73.175781 146.453125 71.5 146.617188 C 69.828125 146.785156 68.152344 146.867188 66.46875 146.867188 C 64.789062 146.867188 63.109375 146.785156 61.4375 146.617188 C 59.761719 146.453125 58.101562 146.207031 56.453125 145.878906 C 54.804688 145.550781 53.171875 145.144531 51.566406 144.65625 C 49.957031 144.167969 48.375 143.601562 46.820312 142.957031 C 45.265625 142.3125 43.75 141.597656 42.265625 140.804688 C 40.78125 140.011719 39.34375 139.148438 37.945312 138.210938 C 36.546875 137.277344 35.195312 136.277344 33.898438 135.210938 C 32.597656 134.144531 31.351562 133.015625 30.164062 131.828125 C 28.972656 130.636719 27.847656 129.394531 26.78125 128.09375 C 25.710938 126.792969 24.710938 125.445312 23.777344 124.046875 C 22.84375 122.648438 21.980469 121.207031 21.1875 119.726562 C 20.394531 118.242188 19.675781 116.722656 19.035156 115.171875 C 18.390625 113.617188 17.824219 112.035156 17.335938 110.425781 C 16.847656 108.816406 16.441406 107.1875 16.113281 105.539062 C 15.785156 103.890625 15.535156 102.226562 15.371094 100.554688 C 15.207031 98.882812 15.125 97.203125 15.125 95.523438 Z M 15.125 95.523438 "/></g><path style=" stroke:none;fill-rule:nonzero;fill:#fad02c;fill-opacity:1;" d="M 107.722656 95.523438 C 107.722656 96.875 107.65625 98.222656 107.523438 99.566406 C 107.390625 100.910156 107.195312 102.246094 106.929688 103.570312 C 106.667969 104.898438 106.339844 106.207031 105.949219 107.5 C 105.554688 108.792969 105.101562 110.0625 104.585938 111.3125 C 104.066406 112.5625 103.492188 113.78125 102.855469 114.972656 C 102.21875 116.164062 101.523438 117.324219 100.773438 118.445312 C 100.023438 119.570312 99.21875 120.65625 98.363281 121.699219 C 97.503906 122.746094 96.597656 123.746094 95.644531 124.699219 C 94.6875 125.65625 93.6875 126.5625 92.644531 127.421875 C 91.597656 128.277344 90.515625 129.082031 89.390625 129.832031 C 88.269531 130.582031 87.109375 131.277344 85.917969 131.914062 C 84.726562 132.550781 83.507812 133.128906 82.257812 133.644531 C 81.011719 134.164062 79.738281 134.617188 78.445312 135.011719 C 77.152344 135.402344 75.84375 135.730469 74.519531 135.996094 C 73.191406 136.257812 71.859375 136.457031 70.511719 136.589844 C 69.167969 136.722656 67.820312 136.789062 66.46875 136.789062 C 65.117188 136.789062 63.769531 136.722656 62.425781 136.589844 C 61.078125 136.457031 59.746094 136.257812 58.417969 135.996094 C 57.09375 135.730469 55.785156 135.402344 54.492188 135.011719 C 53.199219 134.617188 51.925781 134.164062 50.679688 133.644531 C 49.429688 133.128906 48.210938 132.550781 47.019531 131.914062 C 45.828125 131.277344 44.667969 130.582031 43.546875 129.832031 C 42.421875 129.082031 41.339844 128.277344 40.292969 127.421875 C 39.25 126.5625 38.25 125.65625 37.292969 124.699219 C 36.339844 123.746094 35.433594 122.746094 34.574219 121.699219 C 33.71875 120.65625 32.914062 119.570312 32.164062 118.445312 C 31.414062 117.324219 30.71875 116.164062 30.082031 114.972656 C 29.445312 113.78125 28.871094 112.5625 28.351562 111.3125 C 27.835938 110.0625 27.382812 108.792969 26.988281 107.5 C 26.597656 106.207031 26.269531 104.898438 26.007812 103.570312 C 25.746094 102.246094 25.546875 100.910156 25.414062 99.566406 C 25.28125 98.222656 25.214844 96.875 25.21875 95.523438 C 25.21875 91.332031 26.90625 85.203125 30.0625 77.546875 C 31.699219 78.148438 33.390625 78.425781 35.132812 78.378906 C 42.953125 78.378906 42.953125 74.039062 50.777344 74.039062 C 58.597656 74.039062 58.621094 78.378906 66.445312 78.378906 C 74.265625 78.378906 74.265625 74.039062 82.113281 74.039062 C 89.957031 74.039062 89.933594 78.378906 97.753906 78.378906 C 99.507812 78.417969 101.207031 78.128906 102.851562 77.519531 C 106.03125 85.203125 107.722656 91.332031 107.722656 95.523438 Z M 107.722656 95.523438 "/><path style=" stroke:none;fill-rule:nonzero;fill:#3a421b;fill-opacity:1;" d="M 87.21875 52.003906 C 87.382812 52.296875 87.597656 52.542969 87.863281 52.75 C 88.128906 52.957031 88.421875 53.101562 88.742188 53.191406 C 89.066406 53.28125 89.394531 53.304688 89.726562 53.261719 C 90.058594 53.21875 90.371094 53.117188 90.660156 52.949219 C 90.949219 52.785156 91.199219 52.570312 91.40625 52.304688 C 91.609375 52.042969 91.757812 51.746094 91.84375 51.425781 C 91.933594 51.101562 91.957031 50.773438 91.914062 50.441406 C 91.875 50.109375 91.769531 49.796875 91.605469 49.507812 C 88.59375 44.226562 85.253906 38.65625 81.679688 32.957031 C 81.503906 32.671875 81.277344 32.433594 81.003906 32.242188 C 80.730469 32.046875 80.433594 31.914062 80.105469 31.835938 C 79.78125 31.761719 79.453125 31.753906 79.121094 31.808594 C 78.792969 31.863281 78.484375 31.980469 78.199219 32.160156 C 77.917969 32.335938 77.679688 32.5625 77.484375 32.835938 C 77.289062 33.105469 77.15625 33.40625 77.082031 33.734375 C 77.007812 34.058594 76.996094 34.386719 77.054688 34.71875 C 77.109375 35.046875 77.226562 35.355469 77.402344 35.636719 C 80.941406 41.277344 84.242188 46.785156 87.21875 52.003906 Z M 87.21875 52.003906 "/><path style=" stroke:none;fill-rule:nonzero;fill:#3a421b;fill-opacity:1;" d="M 53.035156 120.972656 L 83.3125 93.21875 C 83.5625 92.992188 83.753906 92.730469 83.898438 92.425781 C 84.039062 92.121094 84.117188 91.800781 84.132812 91.46875 C 84.144531 91.132812 84.097656 90.808594 83.980469 90.492188 C 83.867188 90.179688 83.695312 89.898438 83.46875 89.652344 C 83.242188 89.402344 82.976562 89.210938 82.675781 89.070312 C 82.371094 88.925781 82.050781 88.847656 81.71875 88.835938 C 81.382812 88.820312 81.058594 88.871094 80.742188 88.984375 C 80.429688 89.101562 80.148438 89.273438 79.902344 89.5 L 49.625 117.25 C 49.378906 117.476562 49.183594 117.742188 49.042969 118.046875 C 48.902344 118.347656 48.824219 118.667969 48.808594 119.003906 C 48.796875 119.335938 48.847656 119.660156 48.960938 119.976562 C 49.074219 120.289062 49.246094 120.570312 49.472656 120.816406 C 49.699219 121.0625 49.960938 121.257812 50.265625 121.398438 C 50.570312 121.539062 50.886719 121.617188 51.222656 121.632812 C 51.554688 121.648438 51.878906 121.597656 52.195312 121.484375 C 52.507812 121.367188 52.789062 121.199219 53.035156 120.972656 Z M 53.035156 120.972656 "/><path style=" stroke:none;fill-rule:nonzero;fill:#3a421b;fill-opacity:1;" d="M 48.808594 96.40625 C 48.808594 96.902344 48.855469 97.394531 48.953125 97.882812 C 49.050781 98.367188 49.195312 98.84375 49.382812 99.300781 C 49.574219 99.761719 49.808594 100.195312 50.082031 100.609375 C 50.359375 101.023438 50.671875 101.40625 51.023438 101.757812 C 51.375 102.109375 51.757812 102.421875 52.171875 102.699219 C 52.585938 102.972656 53.019531 103.207031 53.480469 103.398438 C 53.9375 103.589844 54.414062 103.730469 54.898438 103.828125 C 55.386719 103.925781 55.878906 103.972656 56.375 103.972656 C 56.875 103.972656 57.367188 103.925781 57.851562 103.828125 C 58.339844 103.730469 58.8125 103.589844 59.273438 103.398438 C 59.734375 103.207031 60.167969 102.972656 60.582031 102.699219 C 60.996094 102.421875 61.378906 102.109375 61.730469 101.757812 C 62.082031 101.40625 62.394531 101.023438 62.671875 100.609375 C 62.945312 100.195312 63.179688 99.761719 63.371094 99.300781 C 63.558594 98.84375 63.703125 98.367188 63.800781 97.882812 C 63.898438 97.394531 63.945312 96.902344 63.945312 96.40625 C 63.945312 95.90625 63.898438 95.414062 63.800781 94.929688 C 63.703125 94.441406 63.558594 93.96875 63.371094 93.507812 C 63.179688 93.050781 62.945312 92.613281 62.671875 92.199219 C 62.394531 91.785156 62.082031 91.402344 61.730469 91.054688 C 61.378906 90.703125 60.996094 90.386719 60.582031 90.113281 C 60.167969 89.835938 59.734375 89.601562 59.273438 89.410156 C 58.8125 89.222656 58.339844 89.078125 57.851562 88.980469 C 57.367188 88.882812 56.875 88.835938 56.375 88.835938 C 55.878906 88.835938 55.386719 88.882812 54.898438 88.980469 C 54.414062 89.078125 53.9375 89.222656 53.480469 89.410156 C 53.019531 89.601562 52.585938 89.835938 52.171875 90.113281 C 51.757812 90.386719 51.375 90.703125 51.023438 91.054688 C 50.671875 91.402344 50.359375 91.785156 50.082031 92.199219 C 49.808594 92.613281 49.574219 93.050781 49.382812 93.507812 C 49.195312 93.96875 49.050781 94.441406 48.953125 94.929688 C 48.855469 95.414062 48.808594 95.90625 48.808594 96.40625 Z M 56.375 93.882812 C 56.710938 93.882812 57.03125 93.945312 57.34375 94.074219 C 57.652344 94.203125 57.925781 94.382812 58.160156 94.621094 C 58.398438 94.859375 58.578125 95.128906 58.707031 95.4375 C 58.835938 95.75 58.898438 96.070312 58.898438 96.40625 C 58.898438 96.738281 58.835938 97.0625 58.707031 97.371094 C 58.578125 97.679688 58.398438 97.953125 58.160156 98.1875 C 57.925781 98.425781 57.652344 98.609375 57.34375 98.734375 C 57.03125 98.863281 56.710938 98.929688 56.375 98.929688 C 56.042969 98.929688 55.71875 98.863281 55.410156 98.734375 C 55.101562 98.609375 54.828125 98.425781 54.59375 98.1875 C 54.355469 97.953125 54.171875 97.679688 54.046875 97.371094 C 53.917969 97.0625 53.855469 96.738281 53.855469 96.40625 C 53.855469 96.070312 53.917969 95.75 54.046875 95.441406 C 54.171875 95.128906 54.355469 94.859375 54.59375 94.621094 C 54.828125 94.382812 55.101562 94.203125 55.410156 94.074219 C 55.71875 93.945312 56.042969 93.882812 56.375 93.882812 Z M 56.375 93.882812 "/><path style=" stroke:none;fill-rule:nonzero;fill:#3a421b;fill-opacity:1;" d="M 84.128906 114.066406 C 84.128906 113.570312 84.082031 113.078125 83.984375 112.589844 C 83.886719 112.101562 83.746094 111.628906 83.554688 111.167969 C 83.363281 110.710938 83.128906 110.273438 82.855469 109.859375 C 82.578125 109.449219 82.265625 109.066406 81.914062 108.714844 C 81.5625 108.363281 81.179688 108.050781 80.765625 107.773438 C 80.351562 107.496094 79.917969 107.261719 79.457031 107.074219 C 79 106.882812 78.523438 106.738281 78.039062 106.644531 C 77.550781 106.546875 77.058594 106.496094 76.5625 106.496094 C 76.0625 106.496094 75.570312 106.546875 75.085938 106.644531 C 74.597656 106.738281 74.125 106.882812 73.664062 107.074219 C 73.207031 107.261719 72.769531 107.496094 72.355469 107.773438 C 71.941406 108.050781 71.558594 108.363281 71.207031 108.714844 C 70.859375 109.066406 70.542969 109.449219 70.269531 109.859375 C 69.992188 110.273438 69.757812 110.710938 69.566406 111.167969 C 69.378906 111.628906 69.234375 112.101562 69.136719 112.589844 C 69.039062 113.078125 68.992188 113.570312 68.992188 114.066406 C 68.992188 114.5625 69.039062 115.054688 69.136719 115.542969 C 69.234375 116.03125 69.378906 116.503906 69.566406 116.960938 C 69.757812 117.421875 69.992188 117.859375 70.269531 118.269531 C 70.542969 118.683594 70.859375 119.066406 71.207031 119.417969 C 71.558594 119.769531 71.941406 120.082031 72.355469 120.359375 C 72.769531 120.636719 73.207031 120.867188 73.664062 121.058594 C 74.125 121.25 74.597656 121.394531 75.085938 121.488281 C 75.570312 121.585938 76.0625 121.636719 76.5625 121.636719 C 77.058594 121.636719 77.550781 121.585938 78.039062 121.488281 C 78.523438 121.394531 79 121.25 79.457031 121.058594 C 79.917969 120.867188 80.351562 120.636719 80.765625 120.359375 C 81.179688 120.082031 81.5625 119.769531 81.914062 119.417969 C 82.265625 119.066406 82.578125 118.683594 82.855469 118.269531 C 83.128906 117.859375 83.363281 117.421875 83.554688 116.960938 C 83.746094 116.503906 83.886719 116.03125 83.984375 115.542969 C 84.082031 115.054688 84.128906 114.5625 84.128906 114.066406 Z M 76.5625 116.589844 C 76.226562 116.589844 75.90625 116.523438 75.59375 116.398438 C 75.285156 116.269531 75.011719 116.085938 74.777344 115.851562 C 74.539062 115.613281 74.359375 115.339844 74.230469 115.03125 C 74.101562 114.722656 74.039062 114.402344 74.039062 114.066406 C 74.039062 113.730469 74.101562 113.410156 74.230469 113.101562 C 74.359375 112.792969 74.539062 112.519531 74.777344 112.28125 C 75.011719 112.046875 75.285156 111.863281 75.59375 111.734375 C 75.90625 111.605469 76.226562 111.542969 76.5625 111.542969 C 76.894531 111.542969 77.21875 111.605469 77.527344 111.734375 C 77.835938 111.863281 78.109375 112.046875 78.34375 112.28125 C 78.582031 112.519531 78.765625 112.792969 78.890625 113.101562 C 79.019531 113.410156 79.085938 113.730469 79.085938 114.066406 C 79.085938 114.402344 79.019531 114.722656 78.890625 115.03125 C 78.765625 115.339844 78.582031 115.613281 78.34375 115.851562 C 78.109375 116.085938 77.835938 116.269531 77.527344 116.398438 C 77.21875 116.523438 76.894531 116.589844 76.5625 116.589844 Z M 76.5625 116.589844 "/><path style=" stroke:none;fill-rule:nonzero;fill:#3a421b;fill-opacity:1;" d="M 96.746094 58.558594 C 96.746094 58.894531 96.679688 59.214844 96.554688 59.523438 C 96.425781 59.832031 96.242188 60.105469 96.007812 60.34375 C 95.769531 60.578125 95.496094 60.761719 95.1875 60.890625 C 94.878906 61.019531 94.558594 61.082031 94.222656 61.082031 C 93.886719 61.082031 93.566406 61.019531 93.257812 60.890625 C 92.949219 60.761719 92.675781 60.578125 92.4375 60.34375 C 92.203125 60.105469 92.019531 59.832031 91.890625 59.523438 C 91.761719 59.214844 91.699219 58.894531 91.699219 58.558594 C 91.699219 58.226562 91.761719 57.902344 91.890625 57.59375 C 92.019531 57.285156 92.203125 57.011719 92.4375 56.773438 C 92.675781 56.539062 92.949219 56.355469 93.257812 56.226562 C 93.566406 56.101562 93.886719 56.035156 94.222656 56.035156 C 94.558594 56.035156 94.878906 56.101562 95.1875 56.226562 C 95.496094 56.355469 95.769531 56.539062 96.007812 56.773438 C 96.242188 57.011719 96.425781 57.285156 96.554688 57.59375 C 96.679688 57.902344 96.746094 58.226562 96.746094 58.558594 Z M 96.746094 58.558594 "/></g></svg>